<svg xmlns="http://www.w3.org/2000/svg" xmlns:xlink="http://www.w3.org/1999/xlink" width="500" zoomAndPan="magnify" viewBox="0 0 375 374.999991" height="500" preserveAspectRatio="xMidYMid meet" version="1.2"><defs/><g id="1e5eb977bb"><g style="fill:#ffffff;fill-opacity:1;"><g transform="translate(9.11431, 183.213397)"><path style="stroke:none" d="M 57.125 -69.578125 L 72.34375 0 L 53.0625 0 L 50.484375 -12.09375 L 25.5625 -12.09375 L 18.828125 0 L -0.375 0 L 37.375 -69.578125 Z M 32.765625 -25.9375 L 47.796875 -25.9375 L 43.921875 -48.078125 L 43.734375 -48.078125 Z M 32.765625 -25.9375 "/></g></g><g style="fill:#ffffff;fill-opacity:1;"><g transform="translate(71.402047, 183.213397)"><path style="stroke:none" d="M 34.96875 -69.578125 L 26.390625 -15.3125 L 48.078125 -15.3125 L 45.671875 0 L 5.90625 0 L 16.890625 -69.578125 Z M 34.96875 -69.578125 "/></g></g><g style="fill:#ffffff;fill-opacity:1;"><g transform="translate(107.297844, 183.213397)"><path style="stroke:none" d="M 57.125 -69.578125 L 72.34375 0 L 53.0625 0 L 50.484375 -12.09375 L 25.5625 -12.09375 L 18.828125 0 L -0.375 0 L 37.375 -69.578125 Z M 32.765625 -25.9375 L 47.796875 -25.9375 L 43.921875 -48.078125 L 43.734375 -48.078125 Z M 32.765625 -25.9375 "/></g></g><g style="fill:#ffffff;fill-opacity:1;"><g transform="translate(169.58558, 183.213397)"><path style="stroke:none" d="M 34.96875 -69.578125 L 61.359375 -27.03125 L 61.546875 -27.03125 L 68.28125 -69.578125 L 86.375 -69.578125 L 75.390625 0 L 57.3125 0 L 30.921875 -42.640625 L 30.734375 -42.640625 L 24 0 L 5.90625 0 L 16.890625 -69.578125 Z M 34.96875 -69.578125 "/></g></g><g style="fill:#000000;fill-opacity:1;"><g transform="translate(229.62327, 185.265275)"><path style="stroke:none" d="M 41.804688 -77.992188 C 50.296875 -77.992188 58.261719 -75.820312 65.691406 -71.472656 L 70.085938 -68.902344 L 54.453125 -45.601562 L 50.339844 -49.480469 C 47.921875 -51.761719 45.171875 -52.90625 42.085938 -52.90625 C 40.816406 -52.90625 39.664062 -52.542969 38.625 -51.820312 C 38.136719 -51.480469 37.890625 -51.199219 37.890625 -50.976562 C 37.890625 -51.097656 37.863281 -51.210938 37.800781 -51.320312 L 37.8125 -51.316406 C 37.867188 -51.253906 37.945312 -51.179688 38.046875 -51.101562 C 38.878906 -50.449219 40.757812 -49.703125 43.6875 -48.867188 C 48.941406 -47.277344 52.824219 -45.6875 55.335938 -44.101562 C 58.117188 -42.34375 60.300781 -40.148438 61.886719 -37.515625 C 63.542969 -34.769531 64.371094 -31.46875 64.371094 -27.617188 C 64.371094 -22.628906 63.125 -17.421875 60.625 -11.996094 C 57.984375 -6.265625 53.710938 -1.730469 47.804688 1.613281 C 42.085938 4.847656 35.386719 6.539062 27.703125 6.679688 C 17.734375 6.679688 8.789062 3.636719 0.867188 -2.445312 L -2.742188 -5.214844 L 13.414062 -28.636719 L 17.476562 -24.570312 C 21.460938 -20.589844 25.410156 -18.597656 29.320312 -18.597656 C 31.140625 -18.597656 32.617188 -19.027344 33.746094 -19.886719 C 34.167969 -20.207031 34.460938 -20.53125 34.628906 -20.851562 C 34.769531 -21.125 34.839844 -21.457031 34.839844 -21.847656 C 34.839844 -21.765625 34.855469 -21.695312 34.890625 -21.632812 C 34.832031 -21.738281 34.679688 -21.886719 34.433594 -22.074219 C 33.425781 -22.855469 31.710938 -23.570312 29.296875 -24.226562 C 25.378906 -25.304688 22.125 -26.4375 19.527344 -27.625 C 16.585938 -28.96875 14.363281 -30.445312 12.859375 -32.0625 C 9.859375 -35.28125 8.359375 -39.445312 8.359375 -44.546875 C 8.359375 -53.941406 11.585938 -61.863281 18.035156 -68.3125 C 24.488281 -74.765625 32.410156 -77.992188 41.804688 -77.992188 Z M 41.804688 -68.414062 C 35.054688 -68.414062 29.390625 -66.125 24.808594 -61.542969 C 20.226562 -56.960938 17.933594 -51.296875 17.933594 -44.546875 C 17.933594 -41.957031 18.578125 -39.972656 19.867188 -38.589844 C 20.503906 -37.902344 21.71875 -37.152344 23.503906 -36.335938 C 25.636719 -35.359375 28.402344 -34.40625 31.800781 -33.46875 C 40.210938 -31.191406 44.417969 -27.316406 44.417969 -21.847656 C 44.417969 -19.90625 43.992188 -18.109375 43.136719 -16.457031 C 42.3125 -14.859375 41.117188 -13.460938 39.550781 -12.269531 C 36.707031 -10.101562 33.296875 -9.019531 29.320312 -9.019531 C 22.765625 -9.019531 16.558594 -11.945312 10.707031 -17.800781 L 14.09375 -21.1875 L 18.035156 -18.464844 L 7.722656 -3.523438 L 3.78125 -6.242188 L 6.699219 -10.039062 C 12.902344 -5.277344 19.84375 -2.898438 27.527344 -2.894531 C 33.59375 -3.007812 38.777344 -4.28125 43.085938 -6.722656 C 47.203125 -9.050781 50.148438 -12.144531 51.925781 -16 C 53.839844 -20.15625 54.796875 -24.027344 54.796875 -27.617188 C 54.796875 -29.691406 54.425781 -31.34375 53.6875 -32.566406 C 52.878906 -33.910156 51.722656 -35.054688 50.214844 -36.007812 C 48.4375 -37.128906 45.386719 -38.347656 41.054688 -39.660156 C 36.921875 -40.839844 33.945312 -42.144531 32.128906 -43.570312 C 30.953125 -44.496094 30.039062 -45.550781 29.394531 -46.734375 C 28.675781 -48.054688 28.3125 -49.46875 28.3125 -50.976562 C 28.3125 -52.789062 28.765625 -54.464844 29.664062 -56.003906 C 30.484375 -57.410156 31.652344 -58.636719 33.160156 -59.6875 C 35.839844 -61.550781 38.816406 -62.480469 42.085938 -62.480469 C 47.707031 -62.480469 52.648438 -60.46875 56.910156 -56.445312 L 53.625 -52.964844 L 49.648438 -55.632812 L 59.296875 -70.007812 L 63.273438 -67.339844 L 60.855469 -63.207031 C 54.917969 -66.679688 48.566406 -68.414062 41.804688 -68.414062 Z M 41.804688 -68.414062 "/></g></g><g style="fill:#000000;fill-opacity:1;"><g transform="translate(277.761016, 185.265275)"><path style="stroke:none" d="M 40.199219 -70.574219 L 34.335938 -32.933594 C 33.804688 -29.753906 33.539062 -27.226562 33.539062 -25.347656 C 33.539062 -22.90625 33.945312 -21.199219 34.753906 -20.226562 C 34.957031 -19.976562 35.308594 -19.765625 35.804688 -19.59375 C 36.625 -19.308594 37.710938 -19.164062 39.0625 -19.164062 C 42.140625 -19.164062 44.417969 -20.070312 45.886719 -21.882812 C 47.761719 -24.199219 49.109375 -28.140625 49.929688 -33.703125 L 56.523438 -76.101562 L 84.757812 -76.101562 L 77.460938 -29.523438 C 76.089844 -20.464844 73.636719 -13.453125 70.109375 -8.480469 C 66.5 -3.402344 61.714844 0.421875 55.753906 2.980469 C 50.011719 5.445312 43.59375 6.679688 36.507812 6.679688 C 26.683594 6.679688 19 4.453125 13.457031 -0.00390625 C 7.597656 -4.714844 4.667969 -11.429688 4.667969 -20.144531 C 4.667969 -21.597656 4.738281 -23.175781 4.875 -24.878906 C 5.011719 -26.578125 7.453125 -42.308594 12.199219 -72.066406 L 12.84375 -76.101562 L 41.058594 -76.101562 Z M 30.734375 -72.050781 L 35.46875 -71.3125 L 35.46875 -66.523438 L 16.929688 -66.523438 L 16.929688 -71.3125 L 21.65625 -70.558594 C 16.949219 -41.046875 14.535156 -25.566406 14.421875 -24.113281 C 14.304688 -22.664062 14.246094 -21.34375 14.246094 -20.144531 C 14.246094 -14.488281 15.984375 -10.261719 19.457031 -7.46875 C 23.246094 -4.421875 28.929688 -2.898438 36.507812 -2.898438 C 42.28125 -2.898438 47.4375 -3.871094 51.972656 -5.820312 C 56.289062 -7.671875 59.730469 -10.40625 62.300781 -14.027344 C 64.949219 -17.757812 66.851562 -23.417969 68 -31.007812 L 74.433594 -72.054688 L 79.164062 -71.3125 L 79.164062 -66.523438 L 60.625 -66.523438 L 60.625 -71.3125 L 65.355469 -70.578125 L 59.402344 -32.3125 C 58.332031 -25.015625 56.304688 -19.527344 53.328125 -15.851562 C 49.941406 -11.675781 45.183594 -9.585938 39.0625 -9.585938 C 33.78125 -9.585938 29.886719 -11.09375 27.386719 -14.105469 C 25.105469 -16.855469 23.964844 -20.601562 23.964844 -25.347656 C 23.964844 -27.753906 24.265625 -30.773438 24.871094 -34.40625 Z M 30.734375 -72.050781 "/></g></g><g style="fill:#ffffff;fill-opacity:1;"><g transform="translate(229.62327, 185.265275)"><path style="stroke:none" d="M 41.796875 -73.203125 C 49.429688 -73.203125 56.585938 -71.25 63.265625 -67.34375 L 53.625 -52.96875 C 50.28125 -56.113281 46.4375 -57.6875 42.09375 -57.6875 C 39.820312 -57.6875 37.753906 -57.039062 35.890625 -55.75 C 34.035156 -54.457031 33.109375 -52.867188 33.109375 -50.984375 C 33.109375 -49.585938 33.769531 -48.367188 35.09375 -47.328125 C 36.414062 -46.296875 38.84375 -45.273438 42.375 -44.265625 C 47.164062 -42.816406 50.628906 -41.410156 52.765625 -40.046875 C 54.910156 -38.691406 56.582031 -37.019531 57.78125 -35.03125 C 58.976562 -33.050781 59.578125 -30.578125 59.578125 -27.609375 C 59.578125 -23.328125 58.472656 -18.789062 56.265625 -14 C 54.066406 -9.207031 50.457031 -5.390625 45.4375 -2.546875 C 40.425781 0.285156 34.484375 1.765625 27.609375 1.890625 C 18.785156 1.890625 10.84375 -0.816406 3.78125 -6.234375 L 14.09375 -21.1875 C 19.007812 -16.269531 24.082031 -13.8125 29.3125 -13.8125 C 32.21875 -13.8125 34.660156 -14.566406 36.640625 -16.078125 C 38.628906 -17.585938 39.625 -19.507812 39.625 -21.84375 C 39.625 -24.875 36.597656 -27.207031 30.546875 -28.84375 C 23.234375 -30.863281 18.503906 -33.023438 16.359375 -35.328125 C 14.210938 -37.628906 13.140625 -40.703125 13.140625 -44.546875 C 13.140625 -52.617188 15.898438 -59.410156 21.421875 -64.921875 C 26.941406 -70.441406 33.734375 -73.203125 41.796875 -73.203125 Z M 41.796875 -73.203125 "/></g></g><g style="fill:#ffffff;fill-opacity:1;"><g transform="translate(277.761016, 185.265275)"><path style="stroke:none" d="M 35.46875 -71.3125 L 29.609375 -33.671875 C 29.035156 -30.265625 28.75 -27.488281 28.75 -25.34375 C 28.75 -21.75 29.519531 -19.019531 31.0625 -17.15625 C 32.613281 -15.300781 35.28125 -14.375 39.0625 -14.375 C 43.664062 -14.375 47.179688 -15.867188 49.609375 -18.859375 C 52.035156 -21.859375 53.722656 -26.570312 54.671875 -33 L 60.625 -71.3125 L 79.15625 -71.3125 L 72.734375 -30.265625 C 71.472656 -21.941406 69.296875 -15.601562 66.203125 -11.25 C 63.109375 -6.90625 58.992188 -3.628906 53.859375 -1.421875 C 48.722656 0.785156 42.9375 1.890625 36.5 1.890625 C 27.800781 1.890625 21.117188 0.015625 16.453125 -3.734375 C 11.785156 -7.484375 9.453125 -12.953125 9.453125 -20.140625 C 9.453125 -21.460938 9.515625 -22.910156 9.640625 -24.484375 C 9.773438 -26.066406 12.203125 -41.675781 16.921875 -71.3125 Z M 35.46875 -71.3125 "/></g></g></g></svg>